<?xml version="1.0" encoding="UTF-8"?>
<!DOCTYPE svg PUBLIC "-//W3C//DTD SVG 1.1//EN" "http://www.w3.org/Graphics/SVG/1.1/DTD/svg11.dtd">
<svg xmlns="http://www.w3.org/2000/svg" xmlns:xlink="http://www.w3.org/1999/xlink" version="1.1" width="1467px" height="1004px" viewBox="-0.5 -0.5 1467 1004" style="background-color: rgb(255, 255, 255);"><defs><clipPath id="mx-clip-174-331-152-44-0"><rect x="174" y="331" width="152" height="44"/></clipPath><clipPath id="mx-clip-174-383-152-32-0"><rect x="174" y="383" width="152" height="32"/></clipPath><clipPath id="mx-clip-359-471-162-44-0"><rect x="359" y="471" width="162" height="44"/></clipPath><clipPath id="mx-clip-359-523-162-26-0"><rect x="359" y="523" width="162" height="26"/></clipPath><clipPath id="mx-clip-359-591-152-34-0"><rect x="359" y="591" width="152" height="34"/></clipPath><clipPath id="mx-clip-359-633-152-52-0"><rect x="359" y="633" width="152" height="52"/></clipPath><clipPath id="mx-clip-359-730-152-24-0"><rect x="359" y="730" width="152" height="24"/></clipPath><clipPath id="mx-clip-359-762-152-82-0"><rect x="359" y="762" width="152" height="82"/></clipPath><clipPath id="mx-clip-174-861-152-26-0"><rect x="174" y="861" width="152" height="26"/></clipPath><clipPath id="mx-clip-174-895-152-50-0"><rect x="174" y="895" width="152" height="50"/></clipPath><clipPath id="mx-clip-4-779-152-100-0"><rect x="4" y="779" width="152" height="100"/></clipPath><clipPath id="mx-clip-4-615-152-54-0"><rect x="4" y="615" width="152" height="54"/></clipPath><clipPath id="mx-clip-4-677-152-52-0"><rect x="4" y="677" width="152" height="52"/></clipPath><clipPath id="mx-clip-4-481-152-44-0"><rect x="4" y="481" width="152" height="44"/></clipPath><clipPath id="mx-clip-4-533-152-42-0"><rect x="4" y="533" width="152" height="42"/></clipPath><clipPath id="mx-clip-552-118-152-26-0"><rect x="552" y="118" width="152" height="26"/></clipPath><clipPath id="mx-clip-552-152-152-50-0"><rect x="552" y="152" width="152" height="50"/></clipPath><clipPath id="mx-clip-544-323-168-26-0"><rect x="544" y="323" width="168" height="26"/></clipPath><clipPath id="mx-clip-544-357-168-50-0"><rect x="544" y="357" width="168" height="50"/></clipPath><clipPath id="mx-clip-911-31-152-104-0"><rect x="911" y="31" width="152" height="104"/></clipPath><clipPath id="mx-clip-911-143-152-102-0"><rect x="911" y="143" width="152" height="102"/></clipPath><clipPath id="mx-clip-1064-841-152-54-0"><rect x="1064" y="841" width="152" height="54"/></clipPath><clipPath id="mx-clip-1064-903-152-82-0"><rect x="1064" y="903" width="152" height="82"/></clipPath><clipPath id="mx-clip-544-841-168-26-0"><rect x="544" y="841" width="168" height="26"/></clipPath><clipPath id="mx-clip-544-875-168-70-0"><rect x="544" y="875" width="168" height="70"/></clipPath><clipPath id="mx-clip-734-841-202-104-0"><rect x="734" y="841" width="202" height="104"/></clipPath><clipPath id="mx-clip-734-953-202-52-0"><rect x="734" y="953" width="202" height="52"/></clipPath><clipPath id="mx-clip-1084-344-92-94-0"><rect x="1084" y="344" width="92" height="94"/></clipPath><clipPath id="mx-clip-1084-446-92-82-0"><rect x="1084" y="446" width="92" height="82"/></clipPath><clipPath id="mx-clip-744-364-182-84-0"><rect x="744" y="364" width="182" height="84"/></clipPath><clipPath id="mx-clip-744-456-182-102-0"><rect x="744" y="456" width="182" height="102"/></clipPath><clipPath id="mx-clip-1284-364-142-94-0"><rect x="1284" y="364" width="142" height="94"/></clipPath><clipPath id="mx-clip-1284-466-142-32-0"><rect x="1284" y="466" width="142" height="32"/></clipPath><clipPath id="mx-clip-1184-641-132-64-0"><rect x="1184" y="641" width="132" height="64"/></clipPath><clipPath id="mx-clip-964-651-142-54-0"><rect x="964" y="651" width="142" height="54"/></clipPath><clipPath id="mx-clip-1294-863-168-40-0"><rect x="1294" y="863" width="168" height="40"/></clipPath><clipPath id="mx-clip-1294-911-168-72-0"><rect x="1294" y="911" width="168" height="72"/></clipPath></defs><g><path d="M 835 333 L 835 280 L 1000 280 L 1000 255.12" fill="none" stroke="#000000" stroke-miterlimit="10" pointer-events="stroke"/><path d="M 1000 241.12 L 1007 255.12 L 993 255.12 Z" fill="none" stroke="#000000" stroke-miterlimit="10" pointer-events="all"/><path d="M 1355 333 L 1370 333 L 1370 280 L 1000 280 L 1000 255.12" fill="none" stroke="#000000" stroke-miterlimit="10" pointer-events="stroke"/><path d="M 1000 241.12 L 1007 255.12 L 993 255.12 Z" fill="none" stroke="#000000" stroke-miterlimit="10" pointer-events="all"/><path d="M 628 292 L 628 211.99" fill="none" stroke="#000000" stroke-miterlimit="10" pointer-events="stroke"/><path d="M 628 197.99 L 632.12 204.99 L 628 211.99 L 623.88 204.99 Z" fill="#000000" stroke="#000000" stroke-miterlimit="10" pointer-events="all"/><path d="M 170 326 L 170 300 L 330 300 L 330 326" fill="#ffffff" stroke="#000000" stroke-miterlimit="10" pointer-events="all"/><path d="M 170 326 L 170 410 L 330 410 L 330 326" fill="none" stroke="#000000" stroke-miterlimit="10" pointer-events="none"/><path d="M 170 326 L 330 326" fill="none" stroke="#000000" stroke-miterlimit="10" pointer-events="none"/><g fill="#000000" font-family="Helvetica" font-weight="bold" text-anchor="middle" font-size="12px"><text x="249.5" y="317.5">Okno</text></g><g fill="#000000" font-family="Helvetica" clip-path="url(#mx-clip-174-331-152-44-0)" font-size="12px"><text x="175.5" y="343.5">+ String aktualne_okno</text><text x="175.5" y="357.5">+ String poprzednie_okno</text></g><path d="M 170 374 L 330 374" fill="none" stroke="#000000" stroke-miterlimit="10" pointer-events="none"/><g fill="#000000" font-family="Helvetica" clip-path="url(#mx-clip-174-383-152-32-0)" font-size="12px"><text x="175.5" y="395.5">+ Wroc_do_poprzedniego()</text></g><path d="M 355 466 L 355 440 L 525 440 L 525 466" fill="#ffffff" stroke="#000000" stroke-miterlimit="10" pointer-events="none"/><path d="M 355 466 L 355 544 L 525 544 L 525 466" fill="none" stroke="#000000" stroke-miterlimit="10" pointer-events="none"/><path d="M 355 466 L 525 466" fill="none" stroke="#000000" stroke-miterlimit="10" pointer-events="none"/><g fill="#000000" font-family="Helvetica" font-weight="bold" text-anchor="middle" font-size="12px"><text x="439.5" y="457.5">Poziom_trudnosci</text></g><g fill="#000000" font-family="Helvetica" clip-path="url(#mx-clip-359-471-162-44-0)" font-size="12px"><text x="360.5" y="483.5">+ String aktywny_poziom</text><text x="360.5" y="497.5">+ String dostepne_poziomy[]</text></g><path d="M 355 514 L 525 514" fill="none" stroke="#000000" stroke-miterlimit="10" pointer-events="none"/><g fill="#000000" font-family="Helvetica" clip-path="url(#mx-clip-359-523-162-26-0)" font-size="12px"><text x="360.5" y="535.5">+ Wybierz_poziom()</text></g><path d="M 355 586 L 355 560 L 515 560 L 515 586" fill="#ffffff" stroke="#000000" stroke-miterlimit="10" pointer-events="none"/><path d="M 355 586 L 355 680 L 515 680 L 515 586" fill="none" stroke="#000000" stroke-miterlimit="10" pointer-events="none"/><path d="M 355 586 L 515 586" fill="none" stroke="#000000" stroke-miterlimit="10" pointer-events="none"/><g fill="#000000" font-family="Helvetica" font-weight="bold" text-anchor="middle" font-size="12px"><text x="434.5" y="577.5">Zarzadzanie_zapisami</text></g><g fill="#000000" font-family="Helvetica" clip-path="url(#mx-clip-359-591-152-34-0)" font-size="12px"><text x="360.5" y="603.5">+ Zapis stany_gry[]</text><text x="360.5" y="617.5">+ boolean czy_w_grze</text></g><path d="M 355 624 L 515 624" fill="none" stroke="#000000" stroke-miterlimit="10" pointer-events="none"/><g fill="#000000" font-family="Helvetica" clip-path="url(#mx-clip-359-633-152-52-0)" font-size="12px"><text x="360.5" y="645.5">+ Zapisz_stan_gry()</text><text x="360.5" y="659.5">+ Wczytaj_stan_gry()</text><text x="360.5" y="673.5">+ Usun_zapis()</text></g><path d="M 355 725 L 355 699 L 515 699 L 515 725" fill="#ffffff" stroke="#000000" stroke-miterlimit="10" pointer-events="none"/><path d="M 355 725 L 355 839 L 515 839 L 515 725" fill="none" stroke="#000000" stroke-miterlimit="10" pointer-events="none"/><path d="M 355 725 L 515 725" fill="none" stroke="#000000" stroke-miterlimit="10" pointer-events="none"/><g fill="#000000" font-family="Helvetica" font-weight="bold" text-anchor="middle" font-size="12px"><text x="434.5" y="716.5">Tworzenie_postaci</text></g><g fill="#000000" font-family="Helvetica" clip-path="url(#mx-clip-359-730-152-24-0)" font-size="12px"><text x="360.5" y="742.5">+ Postac nowa_postac</text></g><path d="M 355 753 L 515 753" fill="none" stroke="#000000" stroke-miterlimit="10" pointer-events="none"/><g fill="#000000" font-family="Helvetica" clip-path="url(#mx-clip-359-762-152-82-0)" font-size="12px"><text x="360.5" y="774.5">+ Losuj_parametry()</text><text x="360.5" y="788.5">+ Dostosuj_twarz()</text><text x="360.5" y="802.5">+ Dostosuj_rece()</text><text x="360.5" y="816.5">+ Dostosuj_nogi()</text><text x="360.5" y="830.5">+ Zakoncz_tworzenie()</text></g><path d="M 170 856 L 170 830 L 330 830 L 330 856" fill="#ffffff" stroke="#000000" stroke-miterlimit="10" pointer-events="none"/><path d="M 170 856 L 170 940 L 330 940 L 330 856" fill="none" stroke="#000000" stroke-miterlimit="10" pointer-events="none"/><path d="M 170 856 L 330 856" fill="none" stroke="#000000" stroke-miterlimit="10" pointer-events="none"/><g fill="#000000" font-family="Helvetica" font-weight="bold" text-anchor="middle" font-size="12px"><text x="249.5" y="847.5">Leaderboard</text></g><g fill="#000000" font-family="Helvetica" clip-path="url(#mx-clip-174-861-152-26-0)" font-size="12px"><text x="175.5" y="873.5">+ Pozycja tabela_wynikow[]</text></g><path d="M 170 886 L 330 886" fill="none" stroke="#000000" stroke-miterlimit="10" pointer-events="none"/><g fill="#000000" font-family="Helvetica" clip-path="url(#mx-clip-174-895-152-50-0)" font-size="12px"><text x="175.5" y="907.5">+ Dodaj_pozycje()</text><text x="175.5" y="921.5">+ Sortuj_tabele()</text><text x="175.5" y="935.5">+ Usun_pozycje()</text></g><path d="M 0 766 L 0 740 L 160 740 L 160 766" fill="#ffffff" stroke="#000000" stroke-miterlimit="10" pointer-events="none"/><path d="M 0 766 L 0 874 L 160 874 L 160 766" fill="none" stroke="#000000" stroke-miterlimit="10" pointer-events="none"/><path d="M 0 766 L 160 766" fill="none" stroke="#000000" stroke-miterlimit="10" pointer-events="none"/><g fill="#000000" font-family="Helvetica" font-weight="bold" text-anchor="middle" font-size="12px"><text x="79.5" y="757.5">Menu_glowne</text></g><path d="M 0 770 L 160 770" fill="none" stroke="#000000" stroke-miterlimit="10" pointer-events="none"/><g fill="#000000" font-family="Helvetica" clip-path="url(#mx-clip-4-779-152-100-0)" font-size="12px"><text x="5.5" y="791.5">+ Wyjdz_z_gry()</text><text x="5.5" y="805.5">+ Mody()</text><text x="5.5" y="819.5">+ Znajomi()</text><text x="5.5" y="833.5">+ Tworzenie_postaci()</text><text x="5.5" y="847.5">+ Leaderboard()</text><text x="5.5" y="861.5">+ Poziom_trudnosci()</text></g><path d="M 0 610 L 0 584 L 160 584 L 160 610" fill="#ffffff" stroke="#000000" stroke-miterlimit="10" pointer-events="none"/><path d="M 0 610 L 0 724 L 160 724 L 160 610" fill="none" stroke="#000000" stroke-miterlimit="10" pointer-events="none"/><path d="M 0 610 L 160 610" fill="none" stroke="#000000" stroke-miterlimit="10" pointer-events="none"/><g fill="#000000" font-family="Helvetica" font-weight="bold" text-anchor="middle" font-size="12px"><text x="79.5" y="601.5">Znajomi</text></g><g fill="#000000" font-family="Helvetica" clip-path="url(#mx-clip-4-615-152-54-0)" font-size="12px"><text x="5.5" y="627.5">+ String Znajomi[]</text><text x="5.5" y="641.5">+ String Gracze[]</text><text x="5.5" y="655.5">+ String Zablokowani[]</text></g><path d="M 0 668 L 160 668" fill="none" stroke="#000000" stroke-miterlimit="10" pointer-events="none"/><g fill="#000000" font-family="Helvetica" clip-path="url(#mx-clip-4-677-152-52-0)" font-size="12px"><text x="5.5" y="689.5">+ Dodaj_znajomego()</text><text x="5.5" y="703.5">+ Wyszukaj_gracza()</text><text x="5.5" y="717.5">+ Zablokuj_gracza</text></g><path d="M 0 476 L 0 450 L 160 450 L 160 476" fill="#ffffff" stroke="#000000" stroke-miterlimit="10" pointer-events="none"/><path d="M 0 476 L 0 570 L 160 570 L 160 476" fill="none" stroke="#000000" stroke-miterlimit="10" pointer-events="none"/><path d="M 0 476 L 160 476" fill="none" stroke="#000000" stroke-miterlimit="10" pointer-events="none"/><g fill="#000000" font-family="Helvetica" font-weight="bold" text-anchor="middle" font-size="12px"><text x="79.5" y="467.5">Mody</text></g><g fill="#000000" font-family="Helvetica" clip-path="url(#mx-clip-4-481-152-44-0)" font-size="12px"><text x="5.5" y="493.5">+ Mod dostepne_mody[]</text><text x="5.5" y="507.5">+ Mod aktywne_mody[]</text></g><path d="M 0 524 L 160 524" fill="none" stroke="#000000" stroke-miterlimit="10" pointer-events="none"/><g fill="#000000" font-family="Helvetica" clip-path="url(#mx-clip-4-533-152-42-0)" font-size="12px"><text x="5.5" y="545.5">+ Aktywuj_mod()</text><text x="5.5" y="559.5">+ Dezaktywuj_mod()</text></g><path d="M 355 492 L 250 492 L 250 418.12" fill="none" stroke="#000000" stroke-miterlimit="10" pointer-events="none"/><path d="M 250 411.12 L 253.5 418.12 L 246.5 418.12 Z" fill="none" stroke="#000000" stroke-miterlimit="10" pointer-events="none"/><path d="M 355 603 L 250 603 L 250 418.12" fill="none" stroke="#000000" stroke-miterlimit="10" pointer-events="none"/><path d="M 250 411.12 L 253.5 418.12 L 246.5 418.12 Z" fill="none" stroke="#000000" stroke-miterlimit="10" pointer-events="none"/><path d="M 355 769 L 250 769 L 250 418.12" fill="none" stroke="#000000" stroke-miterlimit="10" pointer-events="none"/><path d="M 250 411.12 L 253.5 418.12 L 246.5 418.12 Z" fill="none" stroke="#000000" stroke-miterlimit="10" pointer-events="none"/><path d="M 250 830 L 250 418.12" fill="none" stroke="#000000" stroke-miterlimit="10" pointer-events="none"/><path d="M 250 411.12 L 253.5 418.12 L 246.5 418.12 Z" fill="none" stroke="#000000" stroke-miterlimit="10" pointer-events="none"/><path d="M 160 807 L 250 807 L 250 418.12" fill="none" stroke="#000000" stroke-miterlimit="10" pointer-events="none"/><path d="M 250 411.12 L 253.5 418.12 L 246.5 418.12 Z" fill="none" stroke="#000000" stroke-miterlimit="10" pointer-events="none"/><path d="M 160 654 L 250 654 L 250 418.12" fill="none" stroke="#000000" stroke-miterlimit="10" pointer-events="none"/><path d="M 250 411.12 L 253.5 418.12 L 246.5 418.12 Z" fill="none" stroke="#000000" stroke-miterlimit="10" pointer-events="none"/><path d="M 160 510 L 250 510 L 250 418.12" fill="none" stroke="#000000" stroke-miterlimit="10" pointer-events="none"/><path d="M 250 411.12 L 253.5 418.12 L 246.5 418.12 Z" fill="none" stroke="#000000" stroke-miterlimit="10" pointer-events="none"/><path d="M 628 810 L 628 686.5 L 794 686.5 L 793.96 569.01" fill="none" stroke="#000000" stroke-miterlimit="10" pointer-events="none"/><path d="M 793.96 555.01 L 798.08 562 L 793.96 569.01 L 789.84 562.01 Z" fill="#000000" stroke="#000000" stroke-miterlimit="10" pointer-events="none"/><path d="M 1140 810 L 1140 770 L 850 770 L 850 553" fill="none" stroke="#000000" stroke-miterlimit="10" pointer-events="none"/><path d="M 1140 810 L 1140 770 L 1350 770 L 1350 493" fill="none" stroke="#000000" stroke-miterlimit="10" pointer-events="none"/><path d="M 548 113 L 548 87 L 708 87 L 708 113" fill="#ffffff" stroke="#000000" stroke-miterlimit="10" pointer-events="none"/><path d="M 548 113 L 548 197 L 708 197 L 708 113" fill="none" stroke="#000000" stroke-miterlimit="10" pointer-events="none"/><path d="M 548 113 L 708 113" fill="none" stroke="#000000" stroke-miterlimit="10" pointer-events="none"/><g fill="#000000" font-family="Helvetica" font-weight="bold" text-anchor="middle" font-size="12px"><text x="627.5" y="104.5">Sklep</text></g><g fill="#000000" font-family="Helvetica" clip-path="url(#mx-clip-552-118-152-26-0)" font-size="12px"><text x="553.5" y="130.5">+ Double Złoto_Sklep</text></g><path d="M 548 143 L 708 143" fill="none" stroke="#000000" stroke-miterlimit="10" pointer-events="none"/><g fill="#000000" font-family="Helvetica" clip-path="url(#mx-clip-552-152-152-50-0)" font-size="12px"><text x="553.5" y="164.5">+ Kup_przedmiot()</text><text x="553.5" y="178.5">+ Sprzedaj_Przedmiot</text><text x="553.5" y="192.5">+ Kup_Ulepszenie()</text></g><path d="M 540 318 L 540 292 L 716 292 L 716 318" fill="#ffffff" stroke="#000000" stroke-miterlimit="10" pointer-events="none"/><path d="M 540 318 L 540 402 L 716 402 L 716 318" fill="none" stroke="#000000" stroke-miterlimit="10" pointer-events="none"/><path d="M 540 318 L 716 318" fill="none" stroke="#000000" stroke-miterlimit="10" pointer-events="none"/><g fill="#000000" font-family="Helvetica" font-weight="bold" text-anchor="middle" font-size="12px"><text x="627.5" y="309.5">Inwentarz sklepu</text></g><g fill="#000000" font-family="Helvetica" clip-path="url(#mx-clip-544-323-168-26-0)" font-size="12px"><text x="545.5" y="335.5">-  List&lt;Przedmiot&gt; przedmioty</text></g><path d="M 540 348 L 716 348" fill="none" stroke="#000000" stroke-miterlimit="10" pointer-events="none"/><g fill="#000000" font-family="Helvetica" clip-path="url(#mx-clip-544-357-168-50-0)" font-size="12px"><text x="545.5" y="369.5">+ Uzyskaj_cene_zakupu()</text><text x="545.5" y="383.5">+ Uzyskaj_cene_sprzedazy()</text></g><path d="M 835 810 L 820 810 L 820 555.24" fill="none" stroke="#000000" stroke-miterlimit="10" stroke-dasharray="3 3" pointer-events="none"/><path d="M 827 568.12 L 820 554.12 L 813 568.12" fill="none" stroke="#000000" stroke-miterlimit="10" pointer-events="none"/><path d="M 907 26 L 907 0 L 1067 0 L 1067 26" fill="#ffffff" stroke="#000000" stroke-miterlimit="10" pointer-events="none"/><path d="M 907 26 L 907 240 L 1067 240 L 1067 26" fill="none" stroke="#000000" stroke-miterlimit="10" pointer-events="none"/><path d="M 907 26 L 1067 26" fill="none" stroke="#000000" stroke-miterlimit="10" pointer-events="none"/><g fill="#000000" font-family="Helvetica" font-weight="bold" text-anchor="middle" font-size="12px"><text x="986.5" y="17.5">Postac</text></g><g fill="#000000" font-family="Helvetica" clip-path="url(#mx-clip-911-31-152-104-0)" font-size="12px"><text x="912.5" y="43.5">+ int HP_max</text><text x="912.5" y="57.5">+ int Mana_max</text><text x="912.5" y="71.5">+ int Kondycja_max</text><text x="912.5" y="85.5">+ int HP</text><text x="912.5" y="99.5">+ int Mana</text><text x="912.5" y="113.5">+ int Kondycja</text><text x="912.5" y="127.5">+ int Sila</text></g><path d="M 907 134 L 1067 134" fill="none" stroke="#000000" stroke-miterlimit="10" pointer-events="none"/><g fill="#000000" font-family="Helvetica" clip-path="url(#mx-clip-911-143-152-102-0)" font-size="12px"><text x="912.5" y="155.5">+ Zmien_HP_max()</text><text x="912.5" y="169.5">+ Zmien_Mana_max()</text><text x="912.5" y="183.5">+ Zmien_Kondycja_max()</text><text x="912.5" y="197.5">+ Zmien_HP()</text><text x="912.5" y="211.5">+ Zmien_Mana()</text><text x="912.5" y="225.5">+ Zmien_Kondycja()</text></g><path d="M 1060 836 L 1060 810 L 1220 810 L 1220 836" fill="#ffffff" stroke="#000000" stroke-miterlimit="10" pointer-events="none"/><path d="M 1060 836 L 1060 980 L 1220 980 L 1220 836" fill="none" stroke="#000000" stroke-miterlimit="10" pointer-events="none"/><path d="M 1060 836 L 1220 836" fill="none" stroke="#000000" stroke-miterlimit="10" pointer-events="none"/><g fill="#000000" font-family="Helvetica" font-weight="bold" text-anchor="middle" font-size="12px"><text x="1139.5" y="827.5">Walka</text></g><g fill="#000000" font-family="Helvetica" clip-path="url(#mx-clip-1064-841-152-54-0)" font-size="12px"><text x="1065.5" y="853.5">+ String typ_ataku</text><text x="1065.5" y="867.5">+ Typ_broni bron</text><text x="1065.5" y="881.5">+ boolean czy_tarcza</text></g><path d="M 1060 894 L 1220 894" fill="none" stroke="#000000" stroke-miterlimit="10" pointer-events="none"/><g fill="#000000" font-family="Helvetica" clip-path="url(#mx-clip-1064-903-152-82-0)" font-size="12px"><text x="1065.5" y="915.5">+ Atakuj()</text><text x="1065.5" y="929.5">+ Atak_Silny()</text><text x="1065.5" y="943.5">+ Atak_Slaby()</text><text x="1065.5" y="957.5">+ Parowanie()</text><text x="1065.5" y="971.5">+ Losuj_Obrazenia()</text></g><path d="M 540 836 L 540 810 L 716 810 L 716 836" fill="#ffffff" stroke="#000000" stroke-miterlimit="10" pointer-events="none"/><path d="M 540 836 L 540 940 L 716 940 L 716 836" fill="none" stroke="#000000" stroke-miterlimit="10" pointer-events="none"/><path d="M 540 836 L 716 836" fill="none" stroke="#000000" stroke-miterlimit="10" pointer-events="none"/><g fill="#000000" font-family="Helvetica" font-weight="bold" text-anchor="middle" font-size="12px"><text x="627.5" y="827.5">Ekwipunek</text></g><g fill="#000000" font-family="Helvetica" clip-path="url(#mx-clip-544-841-168-26-0)" font-size="12px"><text x="545.5" y="853.5">-  List&lt;Przedmiot&gt; przedmioty</text></g><path d="M 540 866 L 716 866" fill="none" stroke="#000000" stroke-miterlimit="10" pointer-events="none"/><g fill="#000000" font-family="Helvetica" clip-path="url(#mx-clip-544-875-168-70-0)" font-size="12px"><text x="545.5" y="887.5">+ Uzyskaj_liste_przedmiotow()</text><text x="545.5" y="901.5">+ Dodaj_przedmiot()</text><text x="545.5" y="915.5">+ Usun_przedmiot()</text><text x="545.5" y="929.5">+ Zwroc_przedmiot()</text></g><path d="M 730 836 L 730 810 L 940 810 L 940 836" fill="#ffffff" stroke="#000000" stroke-miterlimit="10" pointer-events="none"/><path d="M 730 836 L 730 1000 L 940 1000 L 940 836" fill="none" stroke="#000000" stroke-miterlimit="10" pointer-events="none"/><path d="M 730 836 L 940 836" fill="none" stroke="#000000" stroke-miterlimit="10" pointer-events="none"/><g fill="#000000" font-family="Helvetica" font-weight="bold" text-anchor="middle" font-size="12px"><text x="834.5" y="827.5">Doswiadczenie</text></g><g fill="#000000" font-family="Helvetica" clip-path="url(#mx-clip-734-841-202-104-0)" font-size="12px"><text x="735.5" y="853.5">+ int poziom_gracza</text><text x="735.5" y="867.5">+ int punkty_doswiadczenia</text><text x="735.5" y="881.5">+ int dostepne_punkty_atrybutow</text><text x="735.5" y="895.5">+ int dostepne_punkty_umiejetnosci</text><text x="735.5" y="909.5">+ Umiejetnosc umiejetnosci[]</text><text x="735.5" y="923.5">+ Umiejetnosc umiejetnosci_gracza[]</text></g><path d="M 730 944 L 940 944" fill="none" stroke="#000000" stroke-miterlimit="10" pointer-events="none"/><g fill="#000000" font-family="Helvetica" clip-path="url(#mx-clip-734-953-202-52-0)" font-size="12px"><text x="735.5" y="965.5">+ Zwieksz_poziom()</text><text x="735.5" y="979.5">+ Dodaj_umiejetnosc()</text><text x="735.5" y="993.5">+ Dodaj_atrybut()</text></g><path d="M 1250 708 L 1251 708 L 1251 750 L 882.5 750 L 882.5 553" fill="none" stroke="#000000" stroke-miterlimit="10" pointer-events="none"/><path d="M 1035 620 L 1050 620 L 1050 590 L 1130 590 L 1130 523" fill="none" stroke="#000000" stroke-miterlimit="10" pointer-events="none"/><path d="M 997.5 620 L 1010 620 L 1010 590 L 906.1 590 L 906.06 554.02" fill="none" stroke="#000000" stroke-miterlimit="10" pointer-events="none"/><path d="M 1080 339 L 1080 313 L 1180 313 L 1180 339" fill="#ffffff" stroke="#000000" stroke-miterlimit="10" pointer-events="none"/><path d="M 1080 339 L 1080 523 L 1180 523 L 1180 339" fill="none" stroke="#000000" stroke-miterlimit="10" pointer-events="none"/><path d="M 1080 339 L 1180 339" fill="none" stroke="#000000" stroke-miterlimit="10" pointer-events="none"/><g fill="#000000" font-family="Helvetica" font-weight="bold" font-style="italic" text-anchor="middle" font-size="12px"><text x="1129.5" y="330.5">Przedmiot</text></g><g fill="#000000" font-family="Helvetica" clip-path="url(#mx-clip-1084-344-92-94-0)" font-size="12px"><text x="1085.5" y="356.5">+ String nazwa</text><text x="1085.5" y="370.5">+ int typ</text><text x="1085.5" y="384.5">+ int podtyp</text><text x="1085.5" y="398.5">+ int waga</text><text x="1085.5" y="412.5">+ int wartosc</text><text x="1085.5" y="426.5">+ int jakosc</text></g><path d="M 1080 437 L 1180 437" fill="none" stroke="#000000" stroke-miterlimit="10" pointer-events="none"/><g fill="#000000" font-family="Helvetica" clip-path="url(#mx-clip-1084-446-92-82-0)" font-size="12px"><text x="1085.5" y="458.5">+ inicjuj()</text><text x="1085.5" y="472.5"># losuj_wage();</text><text x="1085.5" y="486.5"># losuj_model();</text><text x="1085.5" y="500.5"># losuj_staty();</text><text x="1085.5" y="514.5"># licz_wartosc();</text></g><path d="M 740 359 L 740 333 L 930 333 L 930 359" fill="#ffffff" stroke="#000000" stroke-miterlimit="10" pointer-events="none"/><path d="M 740 359 L 740 553 L 930 553 L 930 359" fill="none" stroke="#000000" stroke-miterlimit="10" pointer-events="none"/><path d="M 740 359 L 930 359" fill="none" stroke="#000000" stroke-miterlimit="10" pointer-events="none"/><g fill="#000000" font-family="Helvetica" font-weight="bold" text-anchor="middle" font-size="12px"><text x="834.5" y="350.5">Gracz</text></g><g fill="#000000" font-family="Helvetica" clip-path="url(#mx-clip-744-364-182-84-0)" font-size="12px"><text x="745.5" y="376.5">+ Ekwipunek ekwipunek</text><text x="745.5" y="390.5">+ Doswiadczenie doswiadczenie</text><text x="745.5" y="404.5">+ Walka walka</text><text x="745.5" y="418.5">+ Pancerz aktualny_pancerz</text><text x="745.5" y="432.5">+ Bron aktualna_bron</text></g><path d="M 740 447 L 930 447" fill="none" stroke="#000000" stroke-miterlimit="10" pointer-events="none"/><g fill="#000000" font-family="Helvetica" clip-path="url(#mx-clip-744-456-182-102-0)" font-size="12px"><text x="745.5" y="468.5">+ Zmien_bron()</text><text x="745.5" y="482.5">+ Zmien_pancerz()</text><text x="745.5" y="496.5">+ Aktualizuj_statystyki()</text><text x="745.5" y="510.5">+ Zarzadzaj_Ekwipunkiem()</text><text x="745.5" y="524.5">+ Walcz()</text><text x="745.5" y="538.5">+ Zarzadzaj_doswiadczeniem()</text></g><path d="M 1378 832 L 1378 667.5 L 1376.6 667.5 L 1376.6 495.24" fill="none" stroke="#000000" stroke-miterlimit="10" stroke-dasharray="3 3" pointer-events="none"/><path d="M 1383.6 508.12 L 1376.6 494.12 L 1369.6 508.12" fill="none" stroke="#000000" stroke-miterlimit="10" pointer-events="none"/><path d="M 1280 359 L 1280 333 L 1430 333 L 1430 359" fill="#ffffff" stroke="#000000" stroke-miterlimit="10" pointer-events="none"/><path d="M 1280 359 L 1280 493 L 1430 493 L 1430 359" fill="none" stroke="#000000" stroke-miterlimit="10" pointer-events="none"/><path d="M 1280 359 L 1430 359" fill="none" stroke="#000000" stroke-miterlimit="10" pointer-events="none"/><g fill="#000000" font-family="Helvetica" font-weight="bold" text-anchor="middle" font-size="12px"><text x="1354.5" y="350.5">Potwor</text></g><g fill="#000000" font-family="Helvetica" clip-path="url(#mx-clip-1284-364-142-94-0)" font-size="12px"><text x="1285.5" y="376.5">- Sztuczna_inteligencja ai</text><text x="1285.5" y="390.5">+ Walka walka</text><text x="1285.5" y="404.5">+ Int srednie_obrazenia</text><text x="1285.5" y="418.5">+ int odpornosc_fizyczna</text><text x="1285.5" y="432.5">+ int odpornosc_magiczna</text><text x="1285.5" y="446.5">+ int odpornosc_efekty</text></g><path d="M 1280 457 L 1430 457" fill="none" stroke="#000000" stroke-miterlimit="10" pointer-events="none"/><g fill="#000000" font-family="Helvetica" clip-path="url(#mx-clip-1284-466-142-32-0)" font-size="12px"><text x="1285.5" y="478.5">+ Losuj_loot()</text></g><path d="M 1250 610 L 1250 590 L 1130 590 L 1130 523" fill="none" stroke="#000000" stroke-miterlimit="10" pointer-events="none"/><path d="M 1180 636 L 1180 610 L 1320 610 L 1320 636" fill="#ffffff" stroke="#000000" stroke-miterlimit="10" pointer-events="none"/><path d="M 1180 636 L 1180 708 L 1320 708 L 1320 636" fill="none" stroke="#000000" stroke-miterlimit="10" pointer-events="none"/><path d="M 1180 636 L 1320 636" fill="none" stroke="#000000" stroke-miterlimit="10" pointer-events="none"/><g fill="#000000" font-family="Helvetica" font-weight="bold" text-anchor="middle" font-size="12px"><text x="1249.5" y="627.5">Bron</text></g><g fill="#000000" font-family="Helvetica" clip-path="url(#mx-clip-1184-641-132-64-0)" font-size="12px"><text x="1185.5" y="653.5">+ int zasieg</text><text x="1185.5" y="667.5">+ int srednie_obrazenia</text><text x="1185.5" y="681.5">+ int typ_zywiolu</text><text x="1185.5" y="695.5">+ int bonus_zywiolu</text></g><path d="M 1180 704 L 1320 704" fill="none" stroke="#000000" stroke-miterlimit="10" pointer-events="none"/><path d="M 960 646 L 960 620 L 1110 620 L 1110 646" fill="#ffffff" stroke="#000000" stroke-miterlimit="10" pointer-events="none"/><path d="M 960 646 L 960 708 L 1110 708 L 1110 646" fill="none" stroke="#000000" stroke-miterlimit="10" pointer-events="none"/><path d="M 960 646 L 1110 646" fill="none" stroke="#000000" stroke-miterlimit="10" pointer-events="none"/><g fill="#000000" font-family="Helvetica" font-weight="bold" text-anchor="middle" font-size="12px"><text x="1034.5" y="637.5">Pancerz</text></g><g fill="#000000" font-family="Helvetica" clip-path="url(#mx-clip-964-651-142-54-0)" font-size="12px"><text x="965.5" y="663.5">+ int odpornosc_fizyczna</text><text x="965.5" y="677.5">+ int odpornosc_magiczna</text><text x="965.5" y="691.5">+ int odpornosc_efekty</text></g><path d="M 960 704 L 1110 704" fill="none" stroke="#000000" stroke-miterlimit="10" pointer-events="none"/><path d="M 1290 858 L 1290 832 L 1466 832 L 1466 858" fill="#ffffff" stroke="#000000" stroke-miterlimit="10" pointer-events="none"/><path d="M 1290 858 L 1290 978 L 1466 978 L 1466 858" fill="none" stroke="#000000" stroke-miterlimit="10" pointer-events="none"/><path d="M 1290 858 L 1466 858" fill="none" stroke="#000000" stroke-miterlimit="10" pointer-events="none"/><g fill="#000000" font-family="Helvetica" font-weight="bold" text-anchor="middle" font-size="12px"><text x="1377.5" y="849.5">Sztuczna_inteligencja</text></g><g fill="#000000" font-family="Helvetica" clip-path="url(#mx-clip-1294-863-168-40-0)" font-size="12px"><text x="1295.5" y="875.5">- List&lt;Przedmiot&gt; przeciwnicy</text><text x="1295.5" y="889.5">- List&lt;int&gt; zagrozenie</text></g><path d="M 1290 902 L 1466 902" fill="none" stroke="#000000" stroke-miterlimit="10" pointer-events="none"/><g fill="#000000" font-family="Helvetica" clip-path="url(#mx-clip-1294-911-168-72-0)" font-size="12px"><text x="1295.5" y="923.5">+ Ocen_zagrozenie()</text><text x="1295.5" y="937.5">+ Wybierz_akcje()</text><text x="1295.5" y="951.5">+ Wybierz_cel()</text><text x="1295.5" y="965.5">+ Przegrupowanie()</text></g></g></svg>